<?xml version="1.0" encoding="UTF-8"?>
<svg id="Layer_1" data-name="Layer 1" xmlns="http://www.w3.org/2000/svg" viewBox="0 0 2110.567 422.502">
  <defs>
    <style>
      .cls-1 {
        fill-rule: evenodd;
      }
    </style>
  </defs>
  <path class="cls-1" d="M1054.776.214l-105.298,259.15L842.273.214h-79.566l-65.205,422.084h81.867l44.967-257.47,101.711,257.47h47.494l95.585-260.211,51.081,260.414h82.736L1131.815.429l-77.039-.214h0ZM0,0v72.222h168.913v349.851h87.068V72.222l171.722.395V.406L0,0h0ZM1715.772,422.501h99.895l95.1-161.693,103.911,161.693h95.89l-150.073-233.102L2080.074.823h-98.71l-69.007,123.574L1840.937.823l-103.505-.395,121.16,193.788-142.819,228.285h0ZM1288.826,422.501h355.886v-75.821h-272.022v-108.739h243.131v-71.41h-243.131v-89.877h262.794V.429h-346.658v422.073h0ZM510.506.214v422.084h87.068l.406-422.084h-87.474,0Z"/>
</svg>