<svg width="449" height="192" viewBox="0 0 449 192" fill="none" xmlns="http://www.w3.org/2000/svg">
<path d="M392.889 186.958V187.458H393.389H427.369H427.869V186.958V144.606H448H448.5V144.106V115V114.5H448H427.06V61.2341V60.398L426.324 60.7936L393.962 78.1766L393.698 78.3181V78.6171V114.5H356.591L413.25 5.27283L413.629 4.5426H412.806H376.399H376.094L375.954 4.81474L304.758 143.879L304.385 144.606H305.203H392.889V186.958Z" stroke="black"/>
<path d="M198.432 183.13L198.435 183.132C207.023 188.717 217.234 191.5 229.047 191.5C240.858 191.5 251.003 188.718 259.457 183.131C268.019 177.563 275.082 170.163 280.647 160.939C286.204 151.728 290.268 141.505 292.841 130.273C295.547 118.918 296.9 107.493 296.9 96C296.9 84.5078 295.547 73.1506 292.842 61.9292C290.269 50.5635 286.205 40.2727 280.647 31.0609C275.082 21.8373 268.019 14.4373 259.458 8.86907C251.003 3.28218 240.858 0.5 229.047 0.5C217.234 0.5 207.023 3.28258 198.435 8.86806L198.432 8.87009C190.005 14.4386 183.01 21.8385 177.446 31.0609C171.889 40.2718 167.758 50.5617 165.05 61.9267L165.049 61.9309C162.479 73.1519 161.193 84.5085 161.193 96C161.193 107.492 162.479 118.915 165.049 130.27L165.05 130.277C167.758 141.507 171.889 151.729 177.446 160.939C183.01 170.161 190.005 177.561 198.432 183.13ZM243.066 152.23L243.06 152.236C239.247 155.915 234.586 157.755 229.047 157.755C223.508 157.755 218.777 155.915 214.828 152.233C210.979 148.519 207.848 143.665 205.442 137.656C203.031 131.497 201.287 124.797 200.213 117.555C199.138 110.166 198.6 102.981 198.6 96C198.6 88.8834 199.138 81.6987 200.213 74.4457C201.287 67.2029 203.031 60.5709 205.442 54.5475L205.443 54.544C207.849 48.3993 210.981 43.4799 214.828 39.7671C218.777 36.0845 223.508 34.2447 229.047 34.2447C234.586 34.2447 239.247 36.0851 243.06 39.7641L243.06 39.7641L243.066 39.7699C247.047 43.4826 250.245 48.4011 252.65 54.544L252.652 54.5475C255.062 60.5709 256.806 67.2029 257.88 74.4457C258.955 81.6987 259.493 88.8834 259.493 96C259.493 102.981 258.955 110.166 257.88 117.555C256.806 124.797 255.062 131.497 252.651 137.657C250.246 143.664 247.048 148.516 243.066 152.23Z" stroke="black"/>
<path d="M89.6862 186.958V187.458H90.1862H124.166H124.666V186.958V144.606H144.797H145.297V144.106V115V114.5H144.797H123.857V61.2341V60.398L123.121 60.7936L90.7586 78.1766L90.4952 78.3181V78.6171V114.5H53.3881L110.047 5.27283L110.426 4.5426H109.603H73.1962H72.8904L72.7511 4.81474L1.55494 143.879L1.1823 144.606H2H89.6862V186.958Z" stroke="black"/>
</svg>
